<svg xmlns="http://www.w3.org/2000/svg" width="291.656" height="291.656" viewBox="0 0 291.656 291.656">
  <g id="Group_1169" data-name="Group 1169" transform="translate(-36 -221)">
    <g id="Group_1160" data-name="Group 1160" transform="translate(36 301.055)">
      <path id="Path_2421" data-name="Path 2421" d="M121.066,445.777h-.006l-78.99-.1A6.077,6.077,0,0,1,36,439.6v-30.01a6.075,6.075,0,0,1,5.147-6l13.143-2.042a7.758,7.758,0,0,0,5.93-4.575L129.67,237.82a6.077,6.077,0,0,1,11.138,4.867L71.351,401.84a19.853,19.853,0,0,1-15.2,11.709l-8,1.239v18.739l66.838.091v-18a19.936,19.936,0,0,1-13.5-25.976l4.764-13.2a6.071,6.071,0,0,1,5.712-4.016H163.5A6.069,6.069,0,0,1,169.032,376l5.554,12.256A19.917,19.917,0,0,1,163.6,415.068v18.557H297.275a6.076,6.076,0,1,1,0,12.152H157.523a6.074,6.074,0,0,1-6.076-6.076V410.28a6.08,6.08,0,0,1,5.6-6.058,7.768,7.768,0,0,0,6.471-10.949l-3.943-8.689H116.242l-3.312,9.175a7.771,7.771,0,0,0,6.465,10.366l2.345.261a6.073,6.073,0,0,1,5.4,6.04V439.7a6.068,6.068,0,0,1-6.076,6.076Zm33.091-91.143H127.143a6.073,6.073,0,0,1-5.6-8.428L135.054,314a6.075,6.075,0,0,1,5.6-3.731h0a6.068,6.068,0,0,1,5.6,3.731l13.507,32.21a6.079,6.079,0,0,1-5.608,8.428Zm-17.876-12.152h8.744l-4.369-10.427Z" transform="translate(-36 -234.175)" fill="#c08f56"/>
    </g>
    <g id="Group_1161" data-name="Group 1161" transform="translate(206.133 403.285)">
      <path id="Path_2422" data-name="Path 2422" d="M94.381,360.371a6.059,6.059,0,0,1-4.3-1.78l-24.3-24.3a6.05,6.05,0,0,1-1.78-4.3V257.076A6.075,6.075,0,0,1,70.076,251h48.609a6.075,6.075,0,0,1,6.076,6.076V329.99a6.05,6.05,0,0,1-1.78,4.3l-24.3,24.3A6.059,6.059,0,0,1,94.381,360.371Zm-18.229-32.9L94.381,345.7l18.229-18.229V263.152H76.152Zm42.533,2.516h0Z" transform="translate(-64 -251)" fill="#c08f56"/>
    </g>
    <g id="Group_1162" data-name="Group 1162" transform="translate(163.6 312.143)">
      <path id="Path_2423" data-name="Path 2423" d="M196.752,308.914a6.074,6.074,0,0,1-6.076-6.076V248.152H69.152v54.686a6.076,6.076,0,0,1-12.152,0V242.076A6.075,6.075,0,0,1,63.076,236H196.752a6.075,6.075,0,0,1,6.076,6.076v60.762A6.074,6.074,0,0,1,196.752,308.914Z" transform="translate(-57 -236)" fill="#c08f56"/>
    </g>
    <g id="Group_1163" data-name="Group 1163" transform="translate(181.828 263.533)">
      <path id="Path_2424" data-name="Path 2424" d="M163.295,288.762H66.076A6.075,6.075,0,0,1,60,282.686V234.076a6.076,6.076,0,0,1,12.152,0v42.533h85.066V234.076a6.076,6.076,0,0,1,12.152,0v48.609A6.075,6.075,0,0,1,163.295,288.762Z" transform="translate(-60 -228)" fill="#c08f56"/>
    </g>
    <g id="Group_1164" data-name="Group 1164" transform="translate(163.599 372.904)">
      <path id="Path_2425" data-name="Path 2425" d="M172.447,288.533H87.381a6.08,6.08,0,0,1-4.745-2.279l-24.3-30.381A6.077,6.077,0,0,1,63.076,246H99.533a6.076,6.076,0,1,1,0,12.152H75.721L90.3,276.381h79.233l14.577-18.229H117.762a6.076,6.076,0,1,1,0-12.152h78.99a6.077,6.077,0,0,1,4.745,9.874l-24.3,30.381A6.08,6.08,0,0,1,172.447,288.533Z" transform="translate(-57 -246)" fill="#c08f56"/>
    </g>
    <g id="Group_1165" data-name="Group 1165" transform="translate(206.131 411.668)">
      <path id="Path_2426" data-name="Path 2426" d="M70.083,292.606a6.076,6.076,0,0,1-3.044-11.338L115.649,253.2a6.076,6.076,0,1,1,6.076,10.524L73.115,291.792A6.044,6.044,0,0,1,70.083,292.606Z" transform="translate(-64 -252.38)" fill="#c08f56"/>
    </g>
    <g id="Group_1166" data-name="Group 1166" transform="translate(206.131 448.127)">
      <path id="Path_2427" data-name="Path 2427" d="M70.083,298.6a6.076,6.076,0,0,1-3.044-11.338L115.649,259.2a6.076,6.076,0,1,1,6.076,10.524L73.115,297.791A6.044,6.044,0,0,1,70.083,298.6Z" transform="translate(-64 -258.38)" fill="#c08f56"/>
    </g>
    <g id="Group_1167" data-name="Group 1167" transform="translate(218.285 221)">
      <path id="Path_2428" data-name="Path 2428" d="M169.295,275.685H72.076a6.076,6.076,0,1,1,0-12.152h91.143V245.3h-6.076a6.075,6.075,0,0,1-6.076-6.076V227.076a6.076,6.076,0,1,1,12.152,0v6.076h6.076a6.075,6.075,0,0,1,6.076,6.076v30.381A6.075,6.075,0,0,1,169.295,275.685Z" transform="translate(-66 -221)" fill="#c08f56"/>
    </g>
    <g id="Group_1168" data-name="Group 1168" transform="translate(145.371 221)">
      <path id="Path_2429" data-name="Path 2429" d="M114.762,275.685H60.076A6.074,6.074,0,0,1,54,269.609V239.228a6.074,6.074,0,0,1,6.076-6.076h6.076v-6.076a6.076,6.076,0,1,1,12.152,0v12.152a6.075,6.075,0,0,1-6.076,6.076H66.152v18.229h48.609a6.076,6.076,0,1,1,0,12.152Z" transform="translate(-54 -221)" fill="#c08f56"/>
    </g>
  </g>
</svg>
