<svg xmlns="http://www.w3.org/2000/svg" width="291.655" height="291.656" viewBox="0 0 291.655 291.656">
  <g id="Group_1179" data-name="Group 1179" transform="translate(-324 -221)">
    <g id="Group_1170" data-name="Group 1170" transform="translate(427.162 324.319)">
      <path id="Path_2430" data-name="Path 2430" d="M383.418,323.07a42.531,42.531,0,0,1-6.933-84.477,42.608,42.608,0,0,1,48.974,34.92h0a42.53,42.53,0,0,1-34.92,48.962A42.779,42.779,0,0,1,383.418,323.07Zm.1-72.914a30.379,30.379,0,1,0,29.95,25.362A30.226,30.226,0,0,0,383.521,250.156Z" transform="translate(-340.978 -238.004)" fill="#c08f56"/>
    </g>
    <g id="Group_1171" data-name="Group 1171" transform="translate(324 221.601)">
      <path id="Path_2431" data-name="Path 2431" d="M434.719,512.154a6.179,6.179,0,0,1-1.476-.182,151.515,151.515,0,0,1-38.262-15.434,6.076,6.076,0,0,1-3-6.222l4.952-31.474a119.807,119.807,0,0,1-18.332-18.01l-31.359,5.493a6.076,6.076,0,0,1-6.24-2.837,146.534,146.534,0,0,1-16.187-38.043,6.07,6.07,0,0,1,2.285-6.489L352.672,380.3a112.188,112.188,0,0,1-1.027-14.662,109.534,109.534,0,0,1,.626-11.381l-25.69-18.071a6.087,6.087,0,0,1-2.4-6.447,151.517,151.517,0,0,1,15.434-38.262,6.077,6.077,0,0,1,6.222-3l30.5,4.8a119.6,119.6,0,0,1,18.775-19.4l-5.286-30.144a6.079,6.079,0,0,1,2.837-6.24,146.536,146.536,0,0,1,38.043-16.187A6.081,6.081,0,0,1,437.2,223.6L457.1,250.878a6.077,6.077,0,0,1-9.813,7.17l-17.408-23.861A134.375,134.375,0,0,0,402.527,245.8l5.177,29.536a6.066,6.066,0,0,1-2.272,5.858A107.236,107.236,0,0,0,383.952,303.4a6.136,6.136,0,0,1-5.876,2.455l-29.919-4.709a138.8,138.8,0,0,0-11.119,27.537l25.18,17.712a6.077,6.077,0,0,1,2.534,5.736,96.634,96.634,0,0,0,.456,29.992,6.074,6.074,0,0,1-2.418,5.839l-25.1,18.307A134.386,134.386,0,0,0,349.3,433.625l30.764-5.4a6.125,6.125,0,0,1,5.864,2.285,106.964,106.964,0,0,0,21.188,20.811,6.081,6.081,0,0,1,2.382,5.827l-4.849,30.842a138.787,138.787,0,0,0,27.537,11.12l17.84-25.368a6,6,0,0,1,5.8-2.521,94.041,94.041,0,0,0,29.992-.1,5.965,5.965,0,0,1,5.778,2.424l18.174,24.912a133.792,133.792,0,0,0,30.916-13.7,6.073,6.073,0,1,1,6.3,10.384,146.484,146.484,0,0,1-38.049,16.187,6.085,6.085,0,0,1-6.483-2.285l-18.544-25.416a100.747,100.747,0,0,1-26.049.085l-18.174,25.848A6.071,6.071,0,0,1,434.719,512.154Z" transform="translate(-324 -221.099)" fill="#c08f56"/>
    </g>
    <g id="Group_1172" data-name="Group 1172" transform="translate(506.284 221)">
      <path id="Path_2432" data-name="Path 2432" d="M420.838,306.066H360.076A6.071,6.071,0,0,1,354,299.99V227.076a6.076,6.076,0,1,1,12.152,0v66.838h54.686a6.076,6.076,0,1,1,0,12.152Z" transform="translate(-354 -221)" fill="#c08f56"/>
    </g>
    <g id="Group_1173" data-name="Group 1173" transform="translate(585.274 221)">
      <path id="Path_2433" data-name="Path 2433" d="M391.3,306.066H373.076a6.076,6.076,0,0,1,0-12.152h12.152V227.076a6.076,6.076,0,0,1,12.152,0V299.99A6.071,6.071,0,0,1,391.3,306.066Z" transform="translate(-367 -221)" fill="#c08f56"/>
    </g>
    <g id="Group_1174" data-name="Group 1174" transform="translate(524.513 293.914)">
      <path id="Path_2434" data-name="Path 2434" d="M423.838,311.99H363.076A6.071,6.071,0,0,1,357,305.914V239.076a6.076,6.076,0,1,1,12.152,0v60.762h54.686a6.076,6.076,0,1,1,0,12.152Z" transform="translate(-357 -233)" fill="#c08f56"/>
    </g>
    <g id="Group_1175" data-name="Group 1175" transform="translate(585.274 293.914)">
      <path id="Path_2435" data-name="Path 2435" d="M373.076,293.762A6.071,6.071,0,0,1,367,287.686V239.076a6.076,6.076,0,0,1,12.152,0v48.609A6.071,6.071,0,0,1,373.076,293.762Z" transform="translate(-367 -233)" fill="#c08f56"/>
    </g>
    <g id="Group_1176" data-name="Group 1176" transform="translate(506.284 360.752)">
      <path id="Path_2436" data-name="Path 2436" d="M457.295,304.762H402.609a6.076,6.076,0,0,1,0-12.152h48.609V256.152H366.152v36.457h18.229a6.076,6.076,0,1,1,0,12.152h-24.3A6.071,6.071,0,0,1,354,298.685V250.076A6.071,6.071,0,0,1,360.076,244h97.219a6.071,6.071,0,0,1,6.076,6.076v48.609A6.071,6.071,0,0,1,457.295,304.762Z" transform="translate(-354 -244)" fill="#c08f56"/>
    </g>
    <g id="Group_1177" data-name="Group 1177" transform="translate(530.589 409.361)">
      <path id="Path_2437" data-name="Path 2437" d="M412.686,282.381H364.076A6.07,6.07,0,0,1,358,276.3V258.076a6.076,6.076,0,0,1,12.152,0v12.152h36.457V258.076a6.076,6.076,0,1,1,12.152,0V276.3A6.07,6.07,0,0,1,412.686,282.381Z" transform="translate(-358 -252)" fill="#c08f56"/>
    </g>
    <g id="Group_1178" data-name="Group 1178" transform="translate(542.741 427.59)">
      <path id="Path_2438" data-name="Path 2438" d="M378.229,315.762a6.06,6.06,0,0,1-4.3-1.78L361.78,301.829a6.049,6.049,0,0,1-1.78-4.3V261.076A6.071,6.071,0,0,1,366.076,255h24.3a6.071,6.071,0,0,1,6.076,6.076v36.457a6.05,6.05,0,0,1-1.78,4.3l-12.152,12.152A6.06,6.06,0,0,1,378.229,315.762Zm-6.076-20.744,6.076,6.076,6.076-6.076V267.152H372.152Zm18.229,2.516h0Z" transform="translate(-360 -255)" fill="#c08f56"/>
    </g>
  </g>
</svg>
